<svg xmlns="http://www.w3.org/2000/svg" width="20" height="20" fill="none"><g clip-path="url(#a)"><path fill="#000" d="M18.761 5.016A5.03 5.03 0 0 1 15.721 4 5.04 5.04 0 0 1 13.71.017h-3.26v8.909l-.004 4.88a2.95 2.95 0 0 1-3.123 2.945 2.94 2.94 0 0 1-1.35-.414 2.95 2.95 0 0 1-1.442-2.487 2.954 2.954 0 0 1 3.887-2.845v-3.31a6.4 6.4 0 0 0-.94-.07A6.25 6.25 0 0 0 2.78 9.727a6.1 6.1 0 0 0-1.543 3.69 6.1 6.1 0 0 0 1.82 4.758 6.25 6.25 0 0 0 4.421 1.81q.477 0 .94-.069a6.23 6.23 0 0 0 3.482-1.74 6.1 6.1 0 0 0 1.83-4.345l-.016-7.287a8.24 8.24 0 0 0 5.055 1.718V5.016h-.009Z"/></g><defs><clipPath id="a"><path fill="#fff" d="M-.001 0h20v20h-20z"/></clipPath></defs></svg>