<svg xmlns="http://www.w3.org/2000/svg" width="20" height="20" fill="none"><g fill="#000" clip-path="url(#a)"><path d="M19.98 5.88c-.047-1.063-.219-1.793-.465-2.426A4.9 4.9 0 0 0 18.36 1.68 4.9 4.9 0 0 0 16.59.527C15.952.281 15.225.11 14.163.063 13.093.012 12.753 0 10.037 0 7.322 0 6.982.012 5.915.059 4.852.105 4.122.277 3.49.523A4.9 4.9 0 0 0 1.715 1.68 4.9 4.9 0 0 0 .563 3.45C.316 4.087.145 4.813.098 5.876c-.051 1.07-.063 1.41-.063 4.126 0 2.715.012 3.055.059 4.121.047 1.063.219 1.794.465 2.427a4.9 4.9 0 0 0 1.156 1.773c.5.508 1.106.903 1.77 1.153.637.246 1.363.418 2.426.465 1.067.047 1.407.059 4.122.059s3.055-.012 4.122-.06c1.063-.046 1.793-.218 2.426-.464a5.12 5.12 0 0 0 2.926-2.926c.246-.637.418-1.364.465-2.427.047-1.066.059-1.406.059-4.121s-.004-3.055-.05-4.122Zm-1.801 8.165c-.043.977-.207 1.505-.344 1.856a3.32 3.32 0 0 1-1.899 1.899c-.351.137-.883.3-1.855.344-1.055.047-1.372.058-4.04.058s-2.989-.011-4.04-.058c-.977-.043-1.504-.207-1.856-.344a3.1 3.1 0 0 1-1.148-.746 3.1 3.1 0 0 1-.747-1.149c-.136-.351-.3-.883-.343-1.856-.047-1.054-.059-1.371-.059-4.04s.012-2.988.059-4.04c.043-.976.207-1.503.343-1.855A3.04 3.04 0 0 1 3 2.965a3.1 3.1 0 0 1 1.15-.746c.35-.137.882-.3 1.855-.344 1.055-.047 1.371-.058 4.04-.058 2.672 0 2.989.011 4.04.058.976.043 1.504.207 1.855.344.434.16.829.414 1.149.746.332.325.586.715.746 1.149.137.352.301.883.344 1.856.047 1.055.059 1.371.059 4.04s-.012 2.98-.059 4.035"/><path d="M10.037 4.865a5.14 5.14 0 0 0-5.138 5.138 5.139 5.139 0 1 0 5.138-5.138m0 8.47a3.333 3.333 0 1 1 .001-6.666 3.333 3.333 0 0 1-.001 6.667Zm6.54-8.674a1.2 1.2 0 1 1-2.399 0 1.2 1.2 0 0 1 2.4 0Z"/></g><defs><clipPath id="a"><path fill="#fff" d="M0 0h20v20H0z"/></clipPath></defs></svg>